<svg xmlns="http://www.w3.org/2000/svg" viewBox="0 0 1024 1024">
  <path
    fill="#fbfbfb"
    d="m478.8 442.1l-0.3 229c-29.4-26.7-52.8-48-71-64.5-18.1-16.6-41.3-37.8-51.5-47.2l-18.5-17.2c-13.2 11.7-23.3 20.6-31 27.3-7.7 6.7-15.4 13.4-17 14.7l-3 2.5c6.9 6 21.6 19.5 37 33.8 15.4 14.3 33 30.5 39 36 6.1 5.5 17.1 15.6 24.5 22.5 7.4 6.9 23.8 22 36.5 33.5 12.6 11.6 26.6 24.4 31 28.5 4.4 4.1 15.7 14.5 25 23 9.3 8.5 22.8 20.9 30 27.5 7.1 6.6 13.8 12.7 14.8 13.5 1.8 1.5 1.9-3.5 1.8-155.8l-0.1-157.2 16.1-14.5c-0.5-147.6-0.5-190.5-0.4-190.5 0.2 0 13.5 11.8 29.5 26.2 16.1 14.4 37.8 34.1 48.3 43.7 10.5 9.6 23 21.3 28 25.9l9 8.4c-9.3 8.8-25.7 23.7-42.5 38.8-16.8 15.1-40.8 36.5-53.3 47.5l-22.6 20c-0.1 60.1 0.1 77.5 0.4 77.5 0.3 0 19.7-17.3 43.2-38.4 23.6-21.1 50.7-45.5 60.3-54.1 9.6-8.7 25.8-23.2 36-32.4 10.2-9.1 27.5-24.7 38.5-34.7 11-10 21.4-19.3 23-20.7l3-2.6c-10.8-9.8-19.6-17.8-26.5-24.1-6.9-6.3-21.3-19.4-32-29.1-10.7-9.7-32.1-29-47.5-43-15.4-14-39.3-35.5-53-47.9-13.7-12.4-27.9-25.3-31.5-28.7l-6.5-6.2-66.5-0.1z"
  />
</svg>
